<svg width="32" height="32" viewBox="0 0 32 32" fill="none" xmlns="http://www.w3.org/2000/svg">
  <circle cx="16" cy="16" r="14" fill="url(#gradient)" stroke="#d946ef" stroke-width="2"/>
  <path d="M16 8C16 8 14 10 14 16C14 22 16 24 16 24C16 24 18 22 18 16C18 10 16 8 16 8Z" fill="#fdf4ff" stroke="#d946ef" stroke-width="1.5"/>
  <path d="M8 16C8 16 10 14 16 14C22 14 24 16 24 16C24 16 22 18 16 18C10 18 8 16 8 16Z" fill="#fdf4ff" stroke="#d946ef" stroke-width="1.5"/>
  <circle cx="16" cy="16" r="3" fill="#d946ef"/>
  <circle cx="16" cy="16" r="1.5" fill="#fdf4ff"/>
  <defs>
    <radialGradient id="gradient" cx="0.5" cy="0.5" r="0.5">
      <stop offset="0%" stop-color="#f0abfc"/>
      <stop offset="100%" stop-color="#d946ef"/>
    </radialGradient>
  </defs>
</svg>